<svg id="svg" version="1.1" xmlns="http://www.w3.org/2000/svg" xmlns:xlink="http://www.w3.org/1999/xlink" width="400" height="400" viewBox="0, 0, 400,400"><g id="svgg"><path id="path0" d="M18.887 17.591 C 19.391 18.397,20.000 18.674,20.000 18.096 C 20.000 17.929,19.636 17.565,19.191 17.287 C 18.441 16.819,18.419 16.841,18.887 17.591 M17.902 18.266 C 18.179 18.377,18.326 18.596,18.230 18.751 C 18.134 18.907,18.424 19.062,18.875 19.096 C 19.666 19.155,19.669 19.138,18.947 18.591 C 18.536 18.280,18.020 18.034,17.800 18.044 C 17.580 18.055,17.626 18.154,17.902 18.266 M15.900 22.518 C 15.295 23.216,14.800 24.106,14.800 24.494 C 14.800 24.882,14.607 25.200,14.371 25.200 C 14.136 25.200,13.686 25.457,13.371 25.771 C 13.057 26.086,12.800 26.536,12.800 26.771 C 12.800 27.007,12.620 27.200,12.400 27.200 C 12.180 27.200,12.000 27.560,12.000 28.000 C 12.000 28.440,11.840 28.800,11.644 28.800 C 11.449 28.800,11.314 28.504,11.344 28.143 C 11.375 27.782,11.130 27.399,10.800 27.293 C 10.354 27.150,10.313 27.221,10.641 27.571 C 11.143 28.107,10.901 30.000,10.330 30.000 C 10.122 30.000,10.055 30.165,10.180 30.368 C 10.305 30.570,10.136 31.007,9.804 31.339 C 9.472 31.671,9.200 32.316,9.200 32.771 C 9.200 33.241,8.940 33.600,8.600 33.600 C 8.227 33.600,8.000 33.978,8.000 34.600 C 8.000 35.150,7.820 35.600,7.600 35.600 C 7.380 35.600,7.200 36.050,7.200 36.600 C 7.200 37.150,7.033 37.600,6.829 37.600 C 6.309 37.600,5.200 39.939,5.200 41.038 C 5.200 41.541,5.020 42.064,4.800 42.200 C 4.580 42.336,4.400 43.067,4.400 43.824 C 4.400 44.780,4.217 45.200,3.800 45.200 C 3.356 45.200,3.200 45.667,3.200 47.000 C 3.200 47.990,3.020 48.800,2.800 48.800 C 2.580 48.800,2.400 49.599,2.400 50.576 C 2.400 51.553,2.220 52.464,2.000 52.600 C 1.780 52.736,1.600 54.289,1.600 56.052 C 1.600 58.368,1.433 59.424,1.000 59.857 C 0.303 60.555,0.361 45.341,0.384 219.930 C 0.393 286.002,0.509 340.497,0.643 341.030 C 0.791 341.620,0.713 342.000,0.443 342.000 C 0.200 342.000,0.000 342.270,0.000 342.600 C 0.000 342.930,0.180 343.200,0.400 343.200 C 0.620 343.200,0.800 342.930,0.800 342.600 C 0.800 342.270,0.980 342.000,1.200 342.000 C 1.431 342.000,1.600 343.267,1.600 345.000 C 1.600 346.733,1.769 348.000,2.000 348.000 C 2.220 348.000,2.400 348.900,2.400 350.000 C 2.400 351.100,2.561 352.000,2.758 352.000 C 3.349 352.000,3.491 355.156,2.910 355.379 C 1.958 355.744,2.427 358.400,3.443 358.400 C 3.809 358.400,4.022 357.885,4.064 356.900 L 4.128 355.400 4.293 356.800 C 4.383 357.570,4.624 358.371,4.829 358.580 C 5.033 358.789,5.200 359.374,5.200 359.880 C 5.200 360.386,5.380 360.800,5.600 360.800 C 5.820 360.800,6.000 361.160,6.000 361.600 C 6.000 362.044,6.267 362.400,6.600 362.400 C 6.973 362.400,7.200 362.778,7.200 363.400 C 7.200 363.950,7.380 364.400,7.600 364.400 C 7.820 364.400,8.000 364.563,8.000 364.763 C 8.000 364.962,7.640 365.031,7.200 364.916 C 6.627 364.766,6.400 364.904,6.400 365.400 C 6.400 365.896,6.627 366.034,7.200 365.884 C 7.640 365.769,8.000 365.838,8.000 366.037 C 8.000 366.237,8.270 366.400,8.600 366.400 C 8.973 366.400,9.200 366.778,9.200 367.400 C 9.200 367.950,9.380 368.400,9.600 368.400 C 9.820 368.400,10.000 368.760,10.000 369.200 C 10.000 369.640,10.180 370.000,10.400 370.000 C 10.620 370.000,10.800 370.270,10.800 370.600 C 10.800 370.930,11.070 371.200,11.400 371.200 C 12.337 371.200,12.105 371.824,10.977 372.337 C 10.415 372.594,10.052 372.961,10.171 373.153 C 10.499 373.684,11.969 373.974,12.225 373.559 C 12.487 373.136,13.600 374.128,13.600 374.784 C 13.600 375.027,13.870 375.329,14.200 375.455 C 14.530 375.582,14.800 375.855,14.800 376.062 C 14.800 376.577,18.660 380.400,19.181 380.400 C 19.411 380.400,19.600 380.587,19.600 380.815 C 19.600 381.362,25.429 387.200,25.976 387.200 C 26.209 387.200,26.400 387.380,26.400 387.600 C 26.400 387.820,26.760 388.000,27.200 388.000 C 27.644 388.000,28.000 388.267,28.000 388.600 C 28.000 388.930,28.270 389.200,28.600 389.200 C 28.930 389.200,29.200 389.380,29.200 389.600 C 29.200 389.820,29.560 390.000,30.000 390.000 C 30.440 390.000,30.800 390.180,30.800 390.400 C 30.800 390.620,31.250 390.800,31.800 390.800 C 32.350 390.800,32.800 390.993,32.800 391.229 C 32.800 391.876,33.858 392.800,34.600 392.800 C 35.476 392.800,36.200 393.615,36.200 394.600 C 36.200 395.125,36.509 395.444,37.100 395.528 C 37.595 395.598,38.000 395.463,38.000 395.228 C 38.000 394.687,39.868 394.663,40.200 395.200 C 40.336 395.420,40.802 395.600,41.236 395.600 C 41.670 395.600,42.129 395.870,42.255 396.200 C 42.397 396.570,43.005 396.800,43.843 396.800 C 44.589 396.800,45.200 396.980,45.200 397.200 C 45.200 397.420,45.819 397.600,46.576 397.600 C 47.333 397.600,48.064 397.780,48.200 398.000 C 48.336 398.220,49.362 398.400,50.480 398.400 C 51.953 398.400,52.652 398.592,53.024 399.100 C 53.507 399.762,57.566 399.806,126.868 399.915 L 200.200 400.030 200.094 377.250 L 199.987 354.470 197.694 354.272 C 194.835 354.024,192.164 353.474,190.600 352.810 C 189.940 352.530,189.040 352.161,188.600 351.991 C 184.646 350.462,180.793 347.880,177.200 344.351 C 174.953 342.145,171.600 337.987,171.600 337.407 C 171.600 337.302,171.003 336.267,170.274 335.108 C 169.544 333.948,168.640 332.333,168.263 331.517 C 167.887 330.701,167.403 329.926,167.189 329.793 C 166.975 329.661,166.800 329.203,166.800 328.776 C 166.800 328.349,166.620 328.000,166.400 328.000 C 166.180 328.000,166.000 327.726,166.000 327.392 C 166.000 327.058,165.550 326.071,165.000 325.200 C 164.450 324.329,164.000 323.357,164.000 323.041 C 164.000 322.725,163.865 322.407,163.700 322.333 C 163.535 322.260,162.883 321.120,162.252 319.800 C 161.621 318.480,160.857 316.924,160.555 316.343 C 160.253 315.761,159.621 314.501,159.151 313.543 C 158.680 312.584,158.018 311.260,157.677 310.600 C 156.855 309.003,156.587 308.457,155.816 306.800 C 155.458 306.030,154.826 304.860,154.411 304.200 C 153.997 303.540,153.645 302.700,153.629 302.333 C 153.613 301.967,153.463 301.607,153.294 301.533 C 153.126 301.460,149.158 293.750,144.475 284.400 C 132.905 261.295,126.065 247.905,125.593 247.433 C 125.377 247.217,125.200 246.802,125.200 246.512 C 125.200 246.222,124.750 245.271,124.200 244.400 C 123.650 243.529,123.200 242.542,123.200 242.208 C 123.200 241.874,123.020 241.600,122.800 241.600 C 122.580 241.600,122.400 241.326,122.400 240.992 C 122.400 240.658,121.950 239.671,121.400 238.800 C 120.850 237.929,120.400 237.039,120.400 236.822 C 120.400 236.606,119.921 235.567,119.336 234.514 C 118.108 232.305,117.901 231.902,117.016 230.000 C 116.658 229.230,116.026 228.060,115.611 227.400 C 115.197 226.740,114.845 225.971,114.829 225.692 C 114.813 225.413,114.350 224.471,113.800 223.600 C 113.250 222.729,112.800 221.742,112.800 221.408 C 112.800 221.074,112.620 220.800,112.400 220.800 C 112.180 220.800,112.000 220.526,112.000 220.192 C 112.000 219.858,111.590 218.913,111.090 218.092 C 110.589 217.271,109.490 215.160,108.646 213.400 C 107.802 211.640,106.782 209.570,106.380 208.800 C 105.978 208.030,105.352 206.770,104.989 206.000 C 104.626 205.230,104.076 204.124,103.767 203.543 C 103.458 202.961,102.822 201.701,102.353 200.743 C 101.884 199.784,101.348 198.730,101.161 198.400 C 100.975 198.070,100.568 197.260,100.259 196.600 C 98.697 193.275,98.306 192.506,97.611 191.400 C 97.197 190.740,96.845 189.971,96.829 189.692 C 96.813 189.413,96.350 188.471,95.800 187.600 C 95.250 186.729,94.800 185.742,94.800 185.408 C 94.800 185.074,94.620 184.800,94.400 184.800 C 94.180 184.800,94.000 184.451,94.000 184.024 C 94.000 183.597,93.831 183.143,93.625 183.016 C 93.133 182.712,92.000 180.426,92.000 179.739 C 92.000 179.442,91.820 179.200,91.600 179.200 C 91.380 179.200,91.200 178.851,91.200 178.424 C 91.200 177.997,91.025 177.539,90.811 177.407 C 90.597 177.274,90.129 176.499,89.773 175.683 C 89.416 174.867,88.782 173.570,88.364 172.800 C 87.947 172.030,86.687 169.510,85.565 167.200 C 84.442 164.890,83.371 162.730,83.184 162.400 C 82.252 160.756,78.800 153.728,78.800 153.475 C 78.800 153.315,78.350 152.471,77.800 151.600 C 77.250 150.729,76.800 149.742,76.800 149.408 C 76.800 149.074,76.620 148.800,76.400 148.800 C 76.180 148.800,76.000 148.451,76.000 148.024 C 76.000 147.597,75.839 147.148,75.642 147.026 C 75.268 146.795,71.200 138.781,71.200 138.275 C 71.200 138.115,70.750 137.271,70.200 136.400 C 69.650 135.529,69.200 134.542,69.200 134.208 C 69.200 133.874,69.020 133.600,68.800 133.600 C 68.580 133.600,68.400 133.326,68.400 132.992 C 68.400 132.658,67.950 131.671,67.400 130.800 C 66.850 129.929,66.387 128.987,66.371 128.708 C 66.355 128.429,65.997 127.660,65.575 127.000 C 65.154 126.340,64.696 125.530,64.558 125.200 C 64.082 124.060,35.314 65.721,34.774 64.800 C 34.381 64.130,33.625 62.544,32.637 60.317 C 32.275 59.501,31.803 58.726,31.589 58.593 C 31.375 58.461,31.200 58.003,31.200 57.576 C 31.200 57.149,31.020 56.800,30.800 56.800 C 30.580 56.800,30.400 56.526,30.400 56.192 C 30.400 55.858,29.950 54.871,29.400 54.000 C 28.850 53.129,28.403 52.277,28.406 52.108 C 28.416 51.627,26.236 47.416,25.900 47.267 C 25.735 47.193,25.600 46.929,25.600 46.680 C 25.600 46.328,19.809 34.286,16.617 28.000 C 15.913 26.615,15.500 23.200,16.036 23.200 C 16.584 23.200,17.600 22.179,17.600 21.629 C 17.600 20.903,17.048 21.191,15.900 22.518 M2.934 42.227 C 2.802 42.572,2.898 43.058,3.147 43.307 C 3.484 43.644,3.600 43.484,3.600 42.680 C 3.600 41.477,3.301 41.273,2.934 42.227 M0.000 55.951 C 0.000 56.795,0.195 57.200,0.600 57.200 C 0.930 57.200,1.200 56.862,1.200 56.449 C 1.200 56.036,0.930 55.474,0.600 55.200 C 0.088 54.775,0.000 54.886,0.000 55.951 M48.275 399.058 C 47.753 399.580,48.002 400.000,48.833 400.000 C 49.299 400.000,49.597 399.790,49.508 399.525 C 49.313 398.940,48.646 398.688,48.275 399.058 M50.000 399.371 C 50.000 399.742,50.342 400.000,50.833 400.000 C 51.808 400.000,51.670 399.065,50.667 398.871 C 50.272 398.794,50.000 398.998,50.000 399.371 " stroke="none" fill="#10a877" fill-rule="evenodd"></path><path id="path1" d="M21.600 17.227 C 21.600 17.472,21.259 17.546,20.800 17.400 C 20.360 17.260,20.000 17.328,20.000 17.549 C 20.000 18.267,20.747 18.440,21.584 17.917 C 22.450 17.376,22.665 16.800,22.000 16.800 C 21.780 16.800,21.600 16.992,21.600 17.227 M380.000 18.253 C 380.000 18.604,381.647 20.000,382.061 20.000 C 382.603 20.000,382.461 19.688,381.525 18.816 C 380.657 18.008,380.000 17.765,380.000 18.253 M19.600 19.000 C 19.600 19.330,19.780 19.600,20.000 19.600 C 20.220 19.600,20.400 19.330,20.400 19.000 C 20.400 18.670,20.220 18.400,20.000 18.400 C 19.780 18.400,19.600 18.670,19.600 19.000 M56.100 19.097 C 57.805 19.172,60.595 19.172,62.300 19.097 C 64.005 19.022,62.610 18.961,59.200 18.961 C 55.790 18.961,54.395 19.022,56.100 19.097 M338.122 19.099 C 340.499 19.170,344.279 19.169,346.522 19.098 C 348.765 19.027,346.820 18.969,342.200 18.969 C 337.580 18.970,335.745 19.028,338.122 19.099 M352.300 19.093 C 353.235 19.177,354.765 19.177,355.700 19.093 C 356.635 19.009,355.870 18.940,354.000 18.940 C 352.130 18.940,351.365 19.009,352.300 19.093 M37.900 19.482 C 38.395 19.578,39.205 19.578,39.700 19.482 C 40.195 19.387,39.790 19.309,38.800 19.309 C 37.810 19.309,37.405 19.387,37.900 19.482 M363.891 19.489 C 364.601 19.577,365.861 19.579,366.691 19.492 C 367.521 19.405,366.940 19.333,365.400 19.331 C 363.860 19.329,363.181 19.400,363.891 19.489 M32.300 19.889 C 33.015 19.978,34.185 19.978,34.900 19.889 C 35.615 19.801,35.030 19.728,33.600 19.728 C 32.170 19.728,31.585 19.801,32.300 19.889 M369.900 19.882 C 370.395 19.978,371.205 19.978,371.700 19.882 C 372.195 19.787,371.790 19.709,370.800 19.709 C 369.810 19.709,369.405 19.787,369.900 19.882 M22.400 20.395 C 21.991 20.655,22.310 20.699,23.400 20.532 C 25.377 20.229,25.714 19.998,24.167 20.006 C 23.525 20.009,22.730 20.184,22.400 20.395 M380.053 20.767 C 379.676 21.000,379.785 21.155,380.449 21.329 C 381.564 21.620,381.795 21.460,381.096 20.880 C 380.808 20.641,380.340 20.590,380.053 20.767 M384.279 24.300 C 384.186 24.465,383.986 25.140,383.833 25.800 C 383.612 26.754,377.422 39.856,375.990 42.400 C 375.804 42.730,374.092 46.150,372.185 50.000 C 370.278 53.850,368.434 57.540,368.088 58.200 C 367.742 58.860,367.311 59.715,367.129 60.100 C 366.329 61.800,366.067 62.309,365.064 64.114 C 364.479 65.167,364.000 66.277,364.000 66.581 C 364.000 66.885,363.865 67.193,363.700 67.267 C 363.535 67.340,363.099 68.030,362.732 68.800 C 361.336 71.724,360.118 74.229,359.716 75.000 C 359.487 75.440,358.916 76.584,358.447 77.543 C 357.978 78.501,357.340 79.761,357.029 80.343 C 356.479 81.370,351.058 92.445,342.513 110.000 C 340.211 114.730,338.175 118.870,337.989 119.200 C 336.653 121.567,330.800 133.523,330.800 133.884 C 330.800 134.131,330.665 134.393,330.500 134.467 C 330.335 134.540,329.684 135.680,329.054 137.000 C 328.424 138.320,327.757 139.670,327.571 140.000 C 327.140 140.764,325.365 144.410,325.039 145.200 C 324.903 145.530,324.446 146.340,324.025 147.000 C 323.603 147.660,323.245 148.500,323.229 148.867 C 323.213 149.233,323.065 149.593,322.900 149.667 C 322.735 149.740,322.084 150.880,321.454 152.200 C 320.824 153.520,320.157 154.870,319.971 155.200 C 319.785 155.530,319.160 156.790,318.582 158.000 C 318.004 159.210,317.377 160.470,317.188 160.800 C 316.999 161.130,315.920 163.290,314.790 165.600 C 312.234 170.828,312.344 170.611,311.064 172.914 C 310.479 173.967,310.000 175.006,310.000 175.222 C 310.000 175.439,309.550 176.329,309.000 177.200 C 308.450 178.071,308.000 179.058,308.000 179.392 C 308.000 179.726,307.820 180.000,307.600 180.000 C 307.380 180.000,307.200 180.349,307.200 180.776 C 307.200 181.203,307.031 181.657,306.825 181.784 C 306.406 182.044,305.200 184.333,305.200 184.869 C 305.200 185.060,304.750 185.929,304.200 186.800 C 303.650 187.671,303.200 188.658,303.200 188.992 C 303.200 189.326,303.020 189.600,302.800 189.600 C 302.580 189.600,302.400 189.874,302.400 190.208 C 302.400 190.542,301.950 191.529,301.400 192.400 C 300.850 193.271,300.387 194.213,300.371 194.492 C 300.355 194.771,300.003 195.540,299.589 196.200 C 299.174 196.860,298.536 198.030,298.169 198.800 C 295.264 204.907,265.676 264.506,264.709 266.200 C 264.458 266.640,263.646 268.260,262.904 269.800 C 262.163 271.340,260.936 273.843,260.178 275.363 C 259.420 276.883,258.800 278.281,258.800 278.471 C 258.800 278.661,258.350 279.529,257.800 280.400 C 257.250 281.271,256.800 282.243,256.800 282.559 C 256.800 282.875,256.665 283.193,256.500 283.267 C 256.335 283.340,255.683 284.480,255.052 285.800 C 254.421 287.120,253.657 288.676,253.355 289.257 C 253.053 289.839,252.421 291.099,251.951 292.057 C 251.480 293.016,250.818 294.340,250.477 295.000 C 249.534 296.830,249.320 297.279,248.623 298.883 C 248.269 299.699,247.803 300.474,247.589 300.607 C 247.375 300.739,247.200 301.197,247.200 301.624 C 247.200 302.051,247.020 302.400,246.800 302.400 C 246.580 302.400,246.400 302.674,246.400 303.008 C 246.400 303.342,245.950 304.329,245.400 305.200 C 244.850 306.071,244.400 307.058,244.400 307.392 C 244.400 307.726,244.220 308.000,244.000 308.000 C 243.780 308.000,243.600 308.274,243.600 308.608 C 243.600 308.942,243.150 309.929,242.600 310.800 C 242.050 311.671,241.600 312.540,241.600 312.731 C 241.600 313.267,240.394 315.556,239.975 315.816 C 239.769 315.943,239.600 316.397,239.600 316.824 C 239.600 317.251,239.420 317.600,239.200 317.600 C 238.980 317.600,238.800 317.874,238.800 318.208 C 238.800 318.542,238.350 319.529,237.800 320.400 C 237.250 321.271,236.800 322.258,236.800 322.592 C 236.800 322.926,236.620 323.200,236.400 323.200 C 236.180 323.200,236.000 323.474,236.000 323.808 C 236.000 324.142,235.550 325.129,235.000 326.000 C 234.450 326.871,234.000 327.858,234.000 328.192 C 234.000 328.526,233.820 328.800,233.600 328.800 C 233.380 328.800,233.200 329.149,233.200 329.576 C 233.200 330.003,233.032 330.457,232.826 330.584 C 232.620 330.711,231.956 331.847,231.350 333.108 C 228.612 338.809,225.268 343.132,220.800 346.745 C 219.810 347.545,218.940 348.335,218.867 348.500 C 218.793 348.665,218.540 348.800,218.304 348.800 C 218.069 348.800,217.319 349.209,216.638 349.708 C 215.264 350.716,214.581 351.045,210.800 352.522 C 207.884 353.661,206.591 353.940,202.706 354.264 L 200.013 354.490 199.906 377.258 L 199.800 400.027 272.858 399.913 C 341.784 399.806,345.960 399.760,346.690 399.100 C 347.235 398.607,348.132 398.400,349.731 398.400 C 350.979 398.400,352.000 398.220,352.000 398.000 C 352.000 397.780,352.630 397.600,353.400 397.600 C 354.170 397.600,354.800 397.420,354.800 397.200 C 354.800 396.980,355.507 396.800,356.371 396.800 C 357.236 396.800,358.213 396.530,358.543 396.200 C 358.873 395.870,359.516 395.600,359.971 395.600 C 360.427 395.600,360.800 395.420,360.800 395.200 C 360.800 394.980,361.149 394.800,361.576 394.800 C 362.003 394.800,362.464 394.620,362.600 394.400 C 362.736 394.180,363.197 394.000,363.624 394.000 C 364.051 394.000,364.400 393.730,364.400 393.400 C 364.400 393.070,364.732 392.800,365.139 392.800 C 366.212 392.800,368.448 391.601,368.181 391.169 C 368.055 390.966,368.313 390.800,368.753 390.800 C 369.193 390.800,369.666 390.983,369.804 391.207 C 369.942 391.430,370.232 391.504,370.447 391.371 C 370.694 391.219,370.665 390.920,370.370 390.564 C 370.000 390.118,370.038 390.000,370.551 390.000 C 370.908 390.000,371.200 389.820,371.200 389.600 C 371.200 389.380,371.476 389.200,371.813 389.200 C 372.149 389.200,372.530 388.925,372.659 388.590 C 372.836 388.129,373.025 388.089,373.429 388.424 C 374.169 389.038,374.988 388.508,374.398 387.798 C 374.068 387.399,374.105 387.234,374.549 387.133 C 375.111 387.007,380.225 382.599,381.567 381.086 C 381.915 380.693,383.327 379.163,384.704 377.686 C 386.081 376.208,387.430 374.505,387.702 373.900 C 388.196 372.799,388.800 372.427,388.800 373.224 C 388.800 373.457,388.972 373.541,389.183 373.411 C 389.393 373.281,389.471 372.928,389.355 372.628 C 389.240 372.327,389.338 371.962,389.573 371.817 C 389.808 371.672,390.000 371.203,390.000 370.776 C 390.000 370.349,390.159 370.000,390.353 370.000 C 390.548 370.000,390.806 369.685,390.928 369.300 C 391.049 368.915,391.498 367.970,391.925 367.200 C 393.716 363.971,394.800 361.651,394.800 361.046 C 394.800 360.691,394.980 360.400,395.200 360.400 C 395.420 360.400,395.600 359.971,395.600 359.447 C 395.600 358.856,395.881 358.420,396.339 358.300 C 396.906 358.152,397.036 357.827,396.900 356.901 C 396.803 356.238,396.920 355.573,397.162 355.424 C 397.403 355.275,397.600 354.544,397.600 353.800 C 397.600 353.056,397.780 352.336,398.000 352.200 C 398.220 352.064,398.400 351.078,398.400 350.010 C 398.400 348.874,398.596 348.001,398.871 347.910 C 399.846 347.585,399.913 337.319,399.857 197.400 C 399.803 61.869,399.763 54.127,399.100 52.839 C 398.715 52.090,398.400 50.864,398.400 50.115 C 398.400 49.309,398.237 48.854,398.000 49.000 C 397.634 49.226,397.396 47.803,397.577 46.470 C 397.616 46.179,397.419 45.664,397.139 45.326 C 396.858 44.988,396.566 44.236,396.490 43.656 C 396.413 43.075,396.182 42.540,395.975 42.467 C 395.769 42.393,395.600 41.986,395.600 41.561 C 395.600 40.862,394.917 39.303,394.391 38.800 C 393.737 38.175,392.784 36.341,393.259 36.620 C 393.556 36.794,393.485 36.577,393.099 36.136 C 392.714 35.696,392.519 35.215,392.666 35.068 C 392.813 34.920,392.723 34.800,392.467 34.800 C 392.210 34.800,392.000 34.434,392.000 33.987 C 392.000 33.541,391.730 33.071,391.400 32.945 C 391.070 32.818,390.800 32.384,390.800 31.981 C 390.800 31.577,390.620 31.136,390.400 31.000 C 390.180 30.864,390.000 30.493,390.000 30.176 C 390.000 29.489,388.567 27.966,388.233 28.300 C 388.105 28.428,388.000 28.323,388.000 28.067 C 388.000 27.810,388.180 27.600,388.400 27.600 C 388.843 27.600,388.953 25.886,388.537 25.470 C 388.392 25.325,388.068 25.377,387.817 25.586 C 387.513 25.838,386.980 25.636,386.218 24.982 C 385.027 23.958,384.562 23.795,384.279 24.300 M101.215 42.400 C 101.221 42.730,101.490 43.349,101.813 43.776 C 102.568 44.775,102.563 44.405,101.802 42.946 C 101.474 42.316,101.210 42.070,101.215 42.400 M104.015 48.400 C 104.021 48.730,104.290 49.349,104.613 49.776 C 105.368 50.775,105.363 50.405,104.602 48.946 C 104.274 48.316,104.010 48.070,104.015 48.400 M111.615 64.400 C 111.621 64.730,111.890 65.349,112.213 65.776 C 112.968 66.775,112.963 66.405,112.202 64.946 C 111.874 64.316,111.610 64.070,111.615 64.400 M288.480 65.280 C 288.216 65.544,288.000 66.048,288.000 66.400 C 288.000 66.752,287.787 67.253,287.527 67.513 C 287.266 67.774,287.146 68.079,287.259 68.193 C 287.373 68.306,287.697 67.904,287.979 67.299 C 288.262 66.695,288.654 65.885,288.850 65.500 C 289.267 64.681,289.149 64.611,288.480 65.280 M270.421 104.301 C 270.138 104.905,269.719 105.760,269.489 106.200 C 269.116 106.915,269.142 106.942,269.736 106.451 C 270.101 106.149,270.400 105.600,270.400 105.231 C 270.400 104.862,270.613 104.347,270.873 104.087 C 271.134 103.826,271.254 103.521,271.141 103.407 C 271.027 103.294,270.703 103.696,270.421 104.301 M257.300 132.293 C 256.588 133.811,256.684 134.433,257.413 133.033 C 257.748 132.391,257.972 131.722,257.911 131.546 C 257.850 131.370,257.575 131.706,257.300 132.293 M144.000 132.878 C 144.000 133.005,144.269 133.624,144.598 134.254 C 144.926 134.884,145.190 135.130,145.185 134.800 C 145.179 134.470,144.910 133.851,144.587 133.424 C 144.264 132.996,144.000 132.751,144.000 132.878 M249.685 148.813 C 249.418 149.240,249.201 149.817,249.202 150.095 C 249.204 150.373,249.477 150.078,249.810 149.440 C 250.503 148.111,250.411 147.650,249.685 148.813 M151.600 148.878 C 151.600 149.005,151.869 149.624,152.198 150.254 C 152.526 150.884,152.790 151.130,152.785 150.800 C 152.779 150.470,152.510 149.851,152.187 149.424 C 151.864 148.996,151.600 148.751,151.600 148.878 M155.215 156.400 C 155.221 156.730,155.490 157.349,155.813 157.776 C 156.568 158.775,156.563 158.405,155.802 156.946 C 155.474 156.316,155.210 156.070,155.215 156.400 M167.615 182.800 C 167.621 183.130,167.890 183.749,168.213 184.176 C 168.968 185.175,168.963 184.805,168.202 183.346 C 167.874 182.716,167.610 182.470,167.615 182.800 M233.870 183.010 C 233.721 183.445,233.491 184.070,233.358 184.400 C 233.226 184.730,233.419 184.590,233.788 184.090 C 234.158 183.589,234.388 182.964,234.300 182.700 C 234.210 182.431,234.022 182.567,233.870 183.010 M177.200 202.878 C 177.200 203.005,177.469 203.624,177.798 204.254 C 178.126 204.884,178.390 205.130,178.385 204.800 C 178.379 204.470,178.110 203.851,177.787 203.424 C 177.464 202.996,177.200 202.751,177.200 202.878 M180.815 210.400 C 180.821 210.730,181.090 211.349,181.413 211.776 C 182.168 212.775,182.163 212.405,181.402 210.946 C 181.074 210.316,180.810 210.070,180.815 210.400 M213.685 226.413 C 213.418 226.840,213.201 227.417,213.202 227.695 C 213.204 227.973,213.477 227.678,213.810 227.040 C 214.503 225.711,214.411 225.250,213.685 226.413 M188.415 226.400 C 188.421 226.730,188.690 227.349,189.013 227.776 C 189.768 228.775,189.763 228.405,189.002 226.946 C 188.674 226.316,188.410 226.070,188.415 226.400 M208.885 236.813 C 208.618 237.240,208.401 237.817,208.402 238.095 C 208.404 238.373,208.677 238.078,209.010 237.440 C 209.703 236.111,209.611 235.650,208.885 236.813 " stroke="none" fill="#fbb515" fill-rule="evenodd"></path><path id="path2" d="M53.953 0.699 C 53.927 0.865,53.927 1.135,53.953 1.300 C 53.979 1.465,52.931 1.600,51.624 1.600 C 50.308 1.600,49.124 1.799,48.972 2.046 C 48.806 2.314,48.069 2.407,47.118 2.280 C 45.867 2.112,45.585 2.185,45.758 2.634 C 45.919 3.055,45.619 3.200,44.587 3.200 C 43.621 3.200,43.200 3.382,43.200 3.800 C 43.200 4.216,42.781 4.400,41.833 4.400 C 41.082 4.400,40.404 4.588,40.327 4.818 C 40.251 5.048,39.798 5.265,39.322 5.301 C 38.845 5.337,38.544 5.509,38.651 5.683 C 38.759 5.857,38.381 6.000,37.811 6.000 C 37.241 6.000,36.683 6.239,36.571 6.532 C 36.459 6.824,35.744 7.308,34.983 7.607 C 34.223 7.905,33.600 8.386,33.600 8.675 C 33.600 8.968,33.159 9.200,32.600 9.200 C 32.050 9.200,31.600 9.346,31.600 9.525 C 31.600 9.704,30.970 10.098,30.200 10.400 C 29.430 10.702,28.800 11.112,28.800 11.311 C 28.800 11.810,27.115 13.170,26.476 13.187 C 26.188 13.194,26.064 13.020,26.200 12.800 C 26.336 12.580,26.249 12.400,26.006 12.400 C 25.763 12.400,25.601 12.625,25.646 12.900 C 25.777 13.716,25.156 14.800,24.557 14.800 C 24.251 14.800,24.000 14.980,24.000 15.200 C 24.000 15.420,23.736 15.600,23.413 15.600 C 23.029 15.600,22.914 15.831,23.081 16.266 C 23.252 16.713,23.183 16.836,22.868 16.642 C 22.596 16.474,22.400 16.586,22.400 16.909 C 22.400 17.215,21.950 17.706,21.400 18.000 C 20.850 18.294,20.400 18.775,20.400 19.068 C 20.400 19.360,20.027 19.600,19.571 19.600 C 18.686 19.600,17.600 20.466,17.600 21.171 C 17.600 21.690,18.664 21.744,18.974 21.242 C 20.097 19.426,63.408 18.198,71.200 19.762 C 73.070 20.138,75.140 20.537,75.800 20.650 C 76.460 20.762,77.450 21.041,78.000 21.269 C 82.866 23.288,85.194 24.425,86.638 25.488 C 87.319 25.990,88.088 26.400,88.347 26.400 C 89.088 26.400,97.312 34.840,98.191 36.504 C 98.626 37.327,99.121 38.000,99.291 38.000 C 99.461 38.000,99.600 38.274,99.600 38.608 C 99.600 38.942,100.009 39.887,100.509 40.708 C 101.009 41.529,101.615 42.650,101.856 43.200 C 102.097 43.750,102.927 45.550,103.700 47.200 C 104.473 48.850,105.558 51.190,106.112 52.400 C 106.665 53.610,108.415 57.300,110.000 60.600 C 111.585 63.900,113.334 67.590,113.885 68.800 C 114.437 70.010,115.499 72.233,116.244 73.741 C 116.990 75.249,117.600 76.734,117.600 77.041 C 117.600 77.348,117.780 77.600,118.000 77.600 C 118.220 77.600,118.400 77.938,118.400 78.351 C 118.400 78.764,118.670 79.326,119.000 79.600 C 119.330 79.874,119.600 80.311,119.600 80.570 C 119.600 80.830,120.031 81.933,120.557 83.021 C 122.926 87.920,125.936 94.253,126.155 94.800 C 126.287 95.130,126.562 95.670,126.766 96.000 C 126.970 96.330,127.671 97.770,128.325 99.200 C 131.377 105.883,136.322 116.330,136.845 117.200 C 137.043 117.530,137.314 118.070,137.446 118.400 C 137.723 119.088,140.181 124.274,143.154 130.444 C 144.280 132.778,145.200 134.893,145.200 135.144 C 145.200 135.395,145.380 135.600,145.600 135.600 C 145.820 135.600,146.000 135.852,146.000 136.159 C 146.000 136.466,146.612 137.951,147.359 139.459 C 148.962 142.690,152.540 150.239,153.683 152.800 C 154.125 153.790,154.642 154.870,154.832 155.200 C 155.193 155.826,155.858 157.232,157.388 160.600 C 158.936 164.009,162.066 170.569,162.445 171.200 C 162.643 171.530,162.913 172.070,163.045 172.400 C 163.176 172.730,163.963 174.440,164.794 176.200 C 165.624 177.960,166.845 180.570,167.508 182.000 C 169.612 186.544,170.014 187.386,170.369 188.000 C 170.711 188.592,172.343 192.000,176.404 200.600 C 178.860 205.801,181.340 211.019,184.105 216.800 C 185.210 219.110,186.468 221.810,186.900 222.800 C 187.333 223.790,187.842 224.870,188.032 225.200 C 188.222 225.530,188.632 226.340,188.941 227.000 C 189.251 227.660,189.801 228.830,190.164 229.600 C 190.526 230.370,190.979 231.270,191.171 231.600 C 191.509 232.182,192.847 235.013,195.708 241.200 C 197.671 245.445,198.372 246.913,198.765 247.600 C 198.953 247.930,199.329 248.740,199.601 249.400 C 201.208 253.309,201.573 253.330,203.121 249.600 C 203.349 249.050,204.199 247.160,205.009 245.400 C 205.820 243.640,206.931 241.210,207.478 240.000 C 208.026 238.790,208.759 237.260,209.107 236.600 C 210.184 234.562,210.691 233.453,212.675 228.800 C 213.003 228.030,213.557 226.860,213.906 226.200 C 214.826 224.461,216.093 221.789,219.595 214.200 C 220.306 212.660,221.473 210.140,222.188 208.600 C 222.903 207.060,223.981 204.720,224.585 203.400 C 225.676 201.010,226.698 198.831,230.114 191.600 C 231.102 189.510,232.220 187.080,232.598 186.200 C 232.977 185.320,233.915 183.250,234.683 181.600 C 235.452 179.950,236.487 177.700,236.985 176.600 C 237.482 175.500,238.521 173.250,239.294 171.600 C 240.066 169.950,241.154 167.610,241.711 166.400 C 242.267 165.190,243.100 163.401,243.561 162.425 C 244.023 161.449,244.400 160.436,244.400 160.174 C 244.400 159.912,244.670 159.474,245.000 159.200 C 245.330 158.926,245.600 158.364,245.600 157.951 C 245.600 157.538,245.780 157.200,246.000 157.200 C 246.220 157.200,246.400 156.964,246.400 156.675 C 246.400 156.386,246.736 155.441,247.147 154.575 C 247.558 153.709,248.214 152.280,248.605 151.400 C 248.995 150.520,250.369 147.592,251.657 144.892 C 252.946 142.193,254.000 139.887,254.000 139.768 C 254.000 139.648,254.609 138.257,255.354 136.675 C 256.099 135.094,257.004 133.170,257.365 132.400 C 257.727 131.630,258.178 130.730,258.368 130.400 C 258.558 130.070,259.076 128.990,259.520 128.000 C 259.964 127.010,261.064 124.656,261.964 122.770 C 262.864 120.883,263.600 119.128,263.600 118.870 C 263.600 118.611,263.780 118.400,264.000 118.400 C 264.220 118.400,264.400 118.148,264.400 117.841 C 264.400 117.534,265.013 116.049,265.762 114.541 C 267.120 111.809,268.115 109.636,269.396 106.600 C 269.768 105.720,270.357 104.460,270.706 103.800 C 271.475 102.346,271.639 102.002,272.900 99.200 C 273.444 97.990,274.544 95.645,275.345 93.989 C 276.145 92.333,276.800 90.758,276.800 90.489 C 276.800 90.220,276.980 90.000,277.200 90.000 C 277.420 90.000,277.600 89.728,277.600 89.395 C 277.600 89.062,277.772 88.477,277.983 88.095 C 278.662 86.863,286.610 69.722,287.672 67.200 C 287.903 66.650,288.245 65.930,288.430 65.600 C 288.901 64.762,290.784 60.843,291.408 59.400 C 291.913 58.232,293.540 54.699,296.196 49.000 C 296.914 47.460,297.993 45.120,298.593 43.800 C 299.194 42.480,299.891 40.950,300.143 40.401 C 300.793 38.981,303.070 35.755,305.382 32.979 C 309.948 27.498,320.477 20.835,324.620 20.806 C 325.071 20.803,325.611 20.646,325.820 20.458 C 327.798 18.681,357.845 18.286,372.400 19.846 C 375.590 20.188,378.779 20.515,379.487 20.574 C 380.194 20.632,381.004 20.862,381.287 21.085 C 382.432 21.990,383.285 21.542,382.337 20.533 C 381.855 20.020,381.211 19.600,380.907 19.600 C 380.602 19.600,380.464 19.420,380.600 19.200 C 380.736 18.980,380.644 18.800,380.397 18.800 C 380.135 18.800,380.048 18.479,380.189 18.034 C 380.506 17.037,379.748 16.583,378.906 17.266 C 378.436 17.647,378.333 17.657,378.547 17.300 C 378.736 16.985,378.616 16.800,378.224 16.800 C 377.881 16.800,377.600 16.500,377.600 16.133 C 377.600 15.767,377.494 15.573,377.364 15.703 C 376.974 16.092,374.400 13.193,374.400 12.366 C 374.400 11.945,374.220 11.600,374.000 11.600 C 373.780 11.600,373.600 11.870,373.600 12.200 C 373.600 13.260,372.429 12.523,371.902 11.132 C 371.763 10.764,371.330 10.510,370.939 10.568 C 370.549 10.625,369.874 10.341,369.439 9.936 C 369.005 9.531,368.319 9.200,367.915 9.200 C 367.413 9.200,367.101 8.806,366.931 7.957 C 366.700 6.799,366.590 6.729,365.321 6.935 C 363.792 7.183,362.400 6.314,362.400 5.111 C 362.400 4.274,361.898 4.209,360.782 4.900 C 360.117 5.312,359.909 5.295,359.594 4.800 C 358.984 3.841,359.166 3.322,359.813 4.176 C 360.136 4.604,360.400 4.766,360.400 4.538 C 360.400 4.310,360.009 3.781,359.531 3.362 C 359.053 2.943,358.794 2.825,358.955 3.100 C 359.116 3.375,359.072 3.600,358.857 3.600 C 358.642 3.600,358.396 3.388,358.310 3.129 C 358.216 2.848,357.940 2.790,357.622 2.986 C 357.220 3.235,357.323 3.442,358.046 3.843 L 359.000 4.372 358.071 4.386 C 357.561 4.394,356.873 4.130,356.543 3.800 C 356.213 3.470,355.326 3.200,354.571 3.200 C 353.817 3.200,353.200 3.020,353.200 2.800 C 353.200 2.580,352.480 2.400,351.600 2.400 C 350.720 2.400,350.000 2.220,350.000 2.000 C 350.000 1.779,348.950 1.600,347.649 1.600 C 346.051 1.600,345.139 1.409,344.802 1.002 C 344.261 0.350,54.055 0.048,53.953 0.699 M392.673 35.705 C 392.846 35.977,392.991 36.320,392.994 36.467 C 393.009 37.130,393.438 37.085,393.489 36.415 C 393.520 36.002,393.278 35.562,392.952 35.437 C 392.550 35.283,392.460 35.369,392.673 35.705 " stroke="none" fill="#f91b2c" fill-rule="evenodd"></path><path id="path3" d="M38.000 19.605 C 36.570 19.771,33.240 19.937,30.600 19.974 C 26.388 20.034,23.340 20.419,19.000 21.442 C 18.340 21.597,17.509 22.056,17.153 22.462 C 16.797 22.868,16.306 23.200,16.061 23.200 C 15.501 23.200,15.891 26.571,16.617 28.000 C 19.809 34.286,25.600 46.328,25.600 46.680 C 25.600 46.929,25.735 47.193,25.900 47.267 C 26.236 47.416,28.416 51.627,28.406 52.108 C 28.403 52.277,28.850 53.129,29.400 54.000 C 29.950 54.871,30.400 55.858,30.400 56.192 C 30.400 56.526,30.580 56.800,30.800 56.800 C 31.020 56.800,31.200 57.149,31.200 57.576 C 31.200 58.003,31.375 58.461,31.589 58.593 C 31.803 58.726,32.275 59.501,32.637 60.317 C 33.625 62.544,34.381 64.130,34.774 64.800 C 35.314 65.721,64.082 124.060,64.558 125.200 C 64.696 125.530,65.154 126.340,65.575 127.000 C 65.997 127.660,66.355 128.429,66.371 128.708 C 66.387 128.987,66.850 129.929,67.400 130.800 C 67.950 131.671,68.400 132.658,68.400 132.992 C 68.400 133.326,68.580 133.600,68.800 133.600 C 69.020 133.600,69.200 133.874,69.200 134.208 C 69.200 134.542,69.650 135.529,70.200 136.400 C 70.750 137.271,71.200 138.115,71.200 138.275 C 71.200 138.781,75.268 146.795,75.642 147.026 C 75.839 147.148,76.000 147.597,76.000 148.024 C 76.000 148.451,76.180 148.800,76.400 148.800 C 76.620 148.800,76.800 149.074,76.800 149.408 C 76.800 149.742,77.250 150.729,77.800 151.600 C 78.350 152.471,78.800 153.315,78.800 153.475 C 78.800 153.728,82.252 160.756,83.184 162.400 C 83.371 162.730,84.442 164.890,85.565 167.200 C 86.687 169.510,87.947 172.030,88.364 172.800 C 88.782 173.570,89.416 174.867,89.773 175.683 C 90.129 176.499,90.597 177.274,90.811 177.407 C 91.025 177.539,91.200 177.997,91.200 178.424 C 91.200 178.851,91.380 179.200,91.600 179.200 C 91.820 179.200,92.000 179.442,92.000 179.739 C 92.000 180.426,93.133 182.712,93.625 183.016 C 93.831 183.143,94.000 183.597,94.000 184.024 C 94.000 184.451,94.180 184.800,94.400 184.800 C 94.620 184.800,94.800 185.074,94.800 185.408 C 94.800 185.742,95.250 186.729,95.800 187.600 C 96.350 188.471,96.813 189.413,96.829 189.692 C 96.845 189.971,97.197 190.740,97.611 191.400 C 98.306 192.506,98.697 193.275,100.259 196.600 C 100.568 197.260,100.975 198.070,101.161 198.400 C 101.348 198.730,101.884 199.784,102.353 200.743 C 102.822 201.701,103.452 202.961,103.753 203.543 C 105.470 206.861,106.016 207.937,106.620 209.200 C 109.394 214.997,110.293 216.786,111.090 218.092 C 111.590 218.913,112.000 219.858,112.000 220.192 C 112.000 220.526,112.180 220.800,112.400 220.800 C 112.620 220.800,112.800 221.074,112.800 221.408 C 112.800 221.742,113.250 222.729,113.800 223.600 C 114.350 224.471,114.813 225.413,114.829 225.692 C 114.845 225.971,115.197 226.740,115.611 227.400 C 116.026 228.060,116.658 229.230,117.016 230.000 C 117.901 231.902,118.108 232.305,119.336 234.514 C 119.921 235.567,120.400 236.606,120.400 236.822 C 120.400 237.039,120.850 237.929,121.400 238.800 C 121.950 239.671,122.400 240.658,122.400 240.992 C 122.400 241.326,122.580 241.600,122.800 241.600 C 123.020 241.600,123.200 241.874,123.200 242.208 C 123.200 242.542,123.650 243.529,124.200 244.400 C 124.750 245.271,125.200 246.222,125.200 246.512 C 125.200 246.802,125.377 247.217,125.593 247.433 C 126.065 247.905,132.905 261.295,144.475 284.400 C 149.158 293.750,153.126 301.460,153.294 301.533 C 153.463 301.607,153.613 301.967,153.629 302.333 C 153.645 302.700,153.997 303.540,154.411 304.200 C 154.826 304.860,155.458 306.030,155.816 306.800 C 156.587 308.457,156.855 309.003,157.677 310.600 C 158.018 311.260,158.680 312.584,159.151 313.543 C 159.621 314.501,160.253 315.761,160.555 316.343 C 160.857 316.924,161.621 318.480,162.252 319.800 C 162.883 321.120,163.535 322.260,163.700 322.333 C 163.865 322.407,164.000 322.725,164.000 323.041 C 164.000 323.357,164.450 324.329,165.000 325.200 C 165.550 326.071,166.000 327.058,166.000 327.392 C 166.000 327.726,166.180 328.000,166.400 328.000 C 166.620 328.000,166.800 328.349,166.800 328.776 C 166.800 329.203,166.975 329.661,167.189 329.793 C 167.403 329.926,167.887 330.701,168.263 331.517 C 168.640 332.333,169.544 333.948,170.274 335.108 C 171.003 336.267,171.600 337.302,171.600 337.407 C 171.600 337.987,174.953 342.145,177.200 344.351 C 179.545 346.654,180.462 347.377,183.964 349.682 C 185.003 350.366,187.103 351.412,188.600 351.991 C 189.040 352.161,189.940 352.530,190.600 352.810 C 195.397 354.846,205.178 354.704,210.800 352.518 C 214.564 351.054,215.260 350.719,216.638 349.708 C 217.319 349.209,218.069 348.800,218.304 348.800 C 218.540 348.800,218.793 348.665,218.867 348.500 C 218.940 348.335,219.810 347.545,220.800 346.745 C 225.268 343.132,228.612 338.809,231.350 333.108 C 231.956 331.847,232.620 330.711,232.826 330.584 C 233.032 330.457,233.200 330.003,233.200 329.576 C 233.200 329.149,233.380 328.800,233.600 328.800 C 233.820 328.800,234.000 328.526,234.000 328.192 C 234.000 327.858,234.450 326.871,235.000 326.000 C 235.550 325.129,236.000 324.142,236.000 323.808 C 236.000 323.474,236.180 323.200,236.400 323.200 C 236.620 323.200,236.800 322.926,236.800 322.592 C 236.800 322.258,237.250 321.271,237.800 320.400 C 238.350 319.529,238.800 318.542,238.800 318.208 C 238.800 317.874,238.980 317.600,239.200 317.600 C 239.420 317.600,239.600 317.251,239.600 316.824 C 239.600 316.397,239.769 315.943,239.975 315.816 C 240.394 315.556,241.600 313.267,241.600 312.731 C 241.600 312.540,242.050 311.671,242.600 310.800 C 243.150 309.929,243.600 308.942,243.600 308.608 C 243.600 308.274,243.780 308.000,244.000 308.000 C 244.220 308.000,244.400 307.726,244.400 307.392 C 244.400 307.058,244.850 306.071,245.400 305.200 C 245.950 304.329,246.400 303.342,246.400 303.008 C 246.400 302.674,246.580 302.400,246.800 302.400 C 247.020 302.400,247.200 302.051,247.200 301.624 C 247.200 301.197,247.375 300.739,247.589 300.607 C 247.803 300.474,248.270 299.699,248.625 298.883 C 248.981 298.067,249.557 296.860,249.906 296.200 C 250.255 295.540,250.667 294.730,250.820 294.400 C 251.320 293.327,252.792 290.341,253.355 289.257 C 253.657 288.676,254.421 287.120,255.052 285.800 C 255.683 284.480,256.335 283.340,256.500 283.267 C 256.665 283.193,256.800 282.875,256.800 282.559 C 256.800 282.243,257.250 281.271,257.800 280.400 C 258.350 279.529,258.800 278.661,258.800 278.471 C 258.800 278.281,259.420 276.883,260.178 275.363 C 260.936 273.843,262.163 271.340,262.904 269.800 C 263.646 268.260,264.458 266.640,264.709 266.200 C 265.141 265.444,267.030 261.667,277.916 239.800 C 283.040 229.505,297.140 200.964,298.169 198.800 C 298.536 198.030,299.174 196.860,299.589 196.200 C 300.003 195.540,300.355 194.771,300.371 194.492 C 300.387 194.213,300.850 193.271,301.400 192.400 C 301.950 191.529,302.400 190.542,302.400 190.208 C 302.400 189.874,302.580 189.600,302.800 189.600 C 303.020 189.600,303.200 189.326,303.200 188.992 C 303.200 188.658,303.650 187.671,304.200 186.800 C 304.750 185.929,305.200 185.060,305.200 184.869 C 305.200 184.333,306.406 182.044,306.825 181.784 C 307.031 181.657,307.200 181.203,307.200 180.776 C 307.200 180.349,307.380 180.000,307.600 180.000 C 307.820 180.000,308.000 179.726,308.000 179.392 C 308.000 179.058,308.450 178.071,309.000 177.200 C 309.550 176.329,310.000 175.439,310.000 175.222 C 310.000 175.006,310.479 173.967,311.064 172.914 C 312.344 170.611,312.234 170.828,314.790 165.600 C 315.920 163.290,316.999 161.130,317.188 160.800 C 317.377 160.470,318.004 159.210,318.582 158.000 C 319.160 156.790,319.785 155.530,319.971 155.200 C 320.157 154.870,320.824 153.520,321.454 152.200 C 322.084 150.880,322.735 149.740,322.900 149.667 C 323.065 149.593,323.213 149.233,323.229 148.867 C 323.245 148.500,323.603 147.660,324.025 147.000 C 324.446 146.340,324.903 145.530,325.039 145.200 C 325.365 144.410,327.140 140.764,327.571 140.000 C 327.757 139.670,328.424 138.320,329.054 137.000 C 329.684 135.680,330.335 134.540,330.500 134.467 C 330.665 134.393,330.800 134.131,330.800 133.884 C 330.800 133.523,336.653 121.567,337.989 119.200 C 338.175 118.870,340.211 114.730,342.513 110.000 C 351.058 92.445,356.479 81.370,357.029 80.343 C 357.340 79.761,357.978 78.501,358.447 77.543 C 358.916 76.584,359.487 75.440,359.716 75.000 C 360.118 74.229,361.336 71.724,362.732 68.800 C 363.099 68.030,363.535 67.340,363.700 67.267 C 363.865 67.193,364.000 66.885,364.000 66.581 C 364.000 66.277,364.479 65.167,365.064 64.114 C 365.649 63.061,366.254 61.930,366.407 61.600 C 366.560 61.270,367.013 60.370,367.413 59.600 C 367.814 58.830,368.272 57.930,368.431 57.600 C 369.573 55.242,375.719 42.881,375.990 42.400 C 377.445 39.814,383.611 26.752,383.825 25.800 C 383.974 25.140,384.379 24.375,384.724 24.100 C 385.104 23.798,385.164 23.600,384.876 23.600 C 384.614 23.600,384.400 23.330,384.400 23.000 C 384.400 22.627,384.022 22.400,383.400 22.400 C 382.850 22.400,382.400 22.249,382.400 22.064 C 382.400 21.879,381.365 21.500,380.100 21.221 C 378.835 20.942,377.350 20.568,376.800 20.389 C 372.427 18.968,329.693 18.946,326.200 20.363 C 325.760 20.542,324.320 21.020,323.000 21.425 C 320.318 22.249,319.987 22.381,318.000 23.413 C 315.556 24.684,315.044 24.988,314.484 25.503 C 314.184 25.779,313.547 26.212,313.069 26.465 C 310.152 28.008,303.693 34.473,302.181 37.365 C 301.941 37.824,301.262 38.961,300.672 39.892 C 300.082 40.823,299.600 41.734,299.600 41.917 C 299.600 42.100,299.223 43.049,298.761 44.025 C 298.300 45.001,297.475 46.790,296.927 48.000 C 296.379 49.210,295.765 50.470,295.563 50.800 C 295.361 51.130,295.086 51.670,294.952 52.000 C 294.819 52.330,294.213 53.680,293.606 55.000 C 292.999 56.320,292.184 58.120,291.795 59.000 C 291.406 59.880,290.496 61.860,289.773 63.400 C 289.049 64.940,287.654 67.910,286.672 70.000 C 285.689 72.090,284.484 74.700,283.994 75.800 C 283.033 77.955,280.357 83.663,278.162 88.242 C 277.413 89.805,276.800 91.290,276.800 91.542 C 276.800 91.794,276.620 92.000,276.400 92.000 C 276.180 92.000,276.000 92.272,276.000 92.605 C 276.000 92.938,275.828 93.523,275.617 93.905 C 275.136 94.778,271.274 103.054,270.719 104.400 C 270.493 104.950,270.153 105.670,269.965 106.000 C 269.556 106.716,268.448 109.080,267.996 110.200 C 267.818 110.640,266.736 112.980,265.592 115.400 C 264.448 117.820,263.011 120.880,262.399 122.200 C 261.786 123.520,260.726 125.784,260.043 127.232 C 259.359 128.679,258.800 130.074,258.800 130.332 C 258.800 130.589,258.620 130.800,258.400 130.800 C 258.180 130.800,258.000 131.052,258.000 131.359 C 258.000 131.666,257.390 133.151,256.644 134.659 C 255.899 136.167,254.796 138.480,254.195 139.800 C 253.051 142.310,251.336 146.004,249.041 150.900 C 247.433 154.329,245.948 157.584,244.981 159.800 C 244.326 161.301,242.478 165.286,239.415 171.800 C 238.692 173.340,237.784 175.320,237.398 176.200 C 237.013 177.080,236.160 178.970,235.502 180.400 C 234.844 181.830,233.895 183.900,233.393 185.000 C 231.162 189.887,229.492 193.446,229.171 194.000 C 228.791 194.653,228.020 196.287,226.622 199.400 C 226.128 200.500,225.092 202.750,224.319 204.400 C 221.467 210.490,220.834 211.860,219.603 214.600 C 218.911 216.140,217.907 218.290,217.372 219.379 C 216.837 220.467,216.400 221.570,216.400 221.830 C 216.400 222.089,216.130 222.526,215.800 222.800 C 215.470 223.074,215.200 223.636,215.200 224.049 C 215.200 224.462,215.020 224.800,214.800 224.800 C 214.580 224.800,214.400 225.042,214.400 225.339 C 214.400 225.635,214.149 226.400,213.842 227.039 C 211.331 232.264,210.400 234.349,210.400 234.742 C 210.400 234.994,210.220 235.200,210.000 235.200 C 209.780 235.200,209.587 235.515,209.571 235.900 C 209.555 236.285,209.197 237.140,208.775 237.800 C 208.354 238.460,207.901 239.270,207.768 239.600 C 207.636 239.930,207.382 240.560,207.205 241.000 C 206.899 241.757,205.686 244.378,202.804 250.500 C 201.160 253.993,202.057 255.101,195.916 242.000 C 194.834 239.690,193.149 236.204,192.174 234.252 C 191.198 232.301,190.400 230.471,190.400 230.186 C 190.400 229.900,190.265 229.607,190.100 229.533 C 189.665 229.340,188.400 226.835,188.400 226.168 C 188.400 225.855,188.220 225.600,188.000 225.600 C 187.780 225.600,187.600 225.347,187.600 225.037 C 187.600 224.727,187.170 223.602,186.645 222.537 C 185.177 219.558,178.571 205.736,175.589 199.400 C 171.530 190.778,169.495 186.520,168.898 185.400 C 167.980 183.677,167.748 183.190,166.989 181.400 C 166.616 180.520,165.318 177.730,164.104 175.200 C 162.890 172.670,161.306 169.340,160.583 167.800 C 159.861 166.260,158.354 163.102,157.235 160.783 C 156.116 158.463,155.200 156.348,155.200 156.083 C 155.200 155.817,155.020 155.600,154.800 155.600 C 154.580 155.600,154.400 155.348,154.400 155.041 C 154.400 154.734,153.789 153.249,153.041 151.741 C 152.294 150.233,150.963 147.470,150.083 145.600 C 149.203 143.730,147.497 140.130,146.291 137.600 C 145.085 135.070,143.246 131.200,142.205 129.000 C 141.163 126.800,139.611 123.546,138.755 121.770 C 137.900 119.993,137.200 118.328,137.200 118.070 C 137.200 117.811,137.020 117.600,136.800 117.600 C 136.580 117.600,136.400 117.369,136.400 117.086 C 136.400 116.803,135.522 114.778,134.449 112.586 C 130.864 105.264,129.600 102.520,129.600 102.058 C 129.600 101.806,129.420 101.600,129.200 101.600 C 128.980 101.600,128.800 101.391,128.800 101.137 C 128.800 100.882,128.179 99.397,127.420 97.837 C 126.661 96.276,124.936 92.660,123.587 89.800 C 122.238 86.940,120.531 83.340,119.795 81.800 C 119.058 80.260,117.434 76.840,116.184 74.200 C 114.935 71.560,113.393 68.306,112.757 66.968 C 112.121 65.631,111.600 64.326,111.600 64.068 C 111.600 63.811,111.420 63.600,111.200 63.600 C 110.980 63.600,110.800 63.410,110.800 63.178 C 110.800 62.947,109.923 60.922,108.850 58.678 C 107.778 56.435,106.237 53.160,105.426 51.400 C 104.615 49.640,103.782 47.887,103.576 47.505 C 103.369 47.123,103.200 46.553,103.200 46.239 C 103.200 45.924,103.065 45.607,102.900 45.533 C 102.624 45.411,102.312 44.805,100.768 41.400 C 99.426 38.439,92.882 29.600,92.032 29.600 C 91.900 29.600,91.344 29.187,90.796 28.683 C 88.431 26.505,82.226 22.800,80.944 22.800 C 80.645 22.800,80.400 22.620,80.400 22.400 C 80.400 22.180,80.028 22.000,79.574 22.000 C 79.119 22.000,78.402 21.815,77.979 21.589 C 77.139 21.139,74.719 20.562,71.000 19.925 C 68.124 19.433,41.696 19.176,38.000 19.605 M11.388 26.820 C 11.007 27.435,11.528 27.832,12.042 27.318 C 12.329 27.031,12.336 26.807,12.062 26.639 C 11.839 26.500,11.535 26.582,11.388 26.820 " stroke="none" fill="#fbfbfb" fill-rule="evenodd"></path></g></svg>